<?xml version="1.0" encoding="utf-8"?>
<!-- Generator: Adobe Illustrator 22.1.0, SVG Export Plug-In . SVG Version: 6.00 Build 0)  -->
<svg version="1.1" id="Icon" xmlns="http://www.w3.org/2000/svg" xmlns:xlink="http://www.w3.org/1999/xlink" x="0px" y="0px"
	 viewBox="0 0 23 36.4" style="enable-background:new 0 0 23 36.4;" xml:space="preserve">
<style type="text/css">
	.st0{fill:#4CAF50;}
</style>
<path class="st0" d="M17,14.8c3.6,1.9,6,5.7,6,10.1c0,6.3-5.2,11.5-11.5,11.5S0,31.3,0,24.9c0-4.4,2.4-8.2,6-10.1l0.6,0.8
	C3.3,17.4,1,20.9,1,24.9c0,5.8,4.7,10.5,10.5,10.5S22,30.7,22,24.9c0-4-2.3-7.6-5.6-9.3C16.4,15.6,17,14.8,17,14.8z M12,0v14.8
	l3.7-4.6l0.8,0.7l-5,6.1l-5-6.1l0.7-0.7l3.8,4.6V0H12z M18.6,19.2h-3.7c0,0,0,0,0,0s0,0,0,0h-2.2v-0.9c0-0.1,0-0.2-0.1-0.2
	C12.5,18,12.4,18,12.4,18l-8,1.8c-0.1,0-0.2,0.2-0.2,0.3v10.4c0,0.2,0.1,0.3,0.3,0.3l8,1.2c0.2,0,0.3-0.1,0.4-0.3c0,0,0,0,0,0v-0.9
	h5.8c0.2,0,0.3-0.1,0.3-0.3V19.5C18.9,19.4,18.7,19.2,18.6,19.2z M10.2,27.4c0.1,0.1,0,0.3-0.1,0.4c0,0-0.1,0-0.2,0
	c-0.1,0-0.2-0.1-0.3-0.1l-1.3-2l-1.3,2c-0.1,0.1-0.2,0.1-0.3,0.1c-0.2,0-0.3-0.1-0.3-0.3c0-0.1,0-0.1,0-0.2l1.4-2.3l-1.4-2.3
	c-0.1-0.1-0.1-0.3,0.1-0.4c0.1-0.1,0.3-0.1,0.4,0.1c0,0,0,0,0,0l1.3,2l1.3-2c0.1-0.1,0.3-0.2,0.4-0.1c0.1,0.1,0.2,0.3,0.1,0.4
	c0,0,0,0,0,0l-1.4,2.3L10.2,27.4z M14.6,30.3h-1.8v-1.2h1.8V30.3z M14.6,28.5h-1.8v-1.2h1.8V28.5z M14.6,26.6h-1.8v-1.2h1.8V26.6z
	 M14.6,24.8h-1.8v-1.2h1.8V24.8z M14.6,22.9h-1.8v-1.2h1.8V22.9z M14.6,21.1h-1.8v-1.2h1.8V21.1z M18.3,30.3h-3.1v-1.2h3.1V30.3z
	 M18.3,28.5h-3.1v-1.2h3.1V28.5z M18.3,26.6h-3.1v-1.2h3.1V26.6z M18.3,24.8h-3.1v-1.2h3.1V24.8z M18.3,22.9h-3.1v-1.2h3.1V22.9z
	 M18.3,21.1h-3.1v-1.2h3.1V21.1z"/>
</svg>
